
<svg width="96" height="96" viewBox="0 0 96 96" xmlns="http://www.w3.org/2000/svg">
  <defs>
    <linearGradient id="shieldGradient" x1="0%" y1="0%" x2="100%" y2="0%">
      <stop offset="0%" style="stop-color:#4285F4;stop-opacity:1" />
      <stop offset="100%" style="stop-color:#8B5CF6;stop-opacity:1" />
    </linearGradient>
  </defs>
  
  <!-- Shield background -->
  <path d="M12 16 
           Q12 12 24 12
           L72 12
           Q84 12 84 16
           L84 48
           Q84 80 48 84
           Q12 80 12 48
           Z" 
        fill="url(#shieldGradient)" 
        stroke="none"/>
  
  <!-- Inner shield -->
  <path d="M16 24 
           Q16 19.2 32 19.2
           L64 19.2
           Q80 19.2 80 24
           L80 48
           Q80 72 48 76.8
           Q16 72 16 48
           Z" 
        fill="#E8E8E8" 
        opacity="0.9"/>
  
  <!-- Family silhouettes -->
  <!-- Parent figure -->
  <circle cx="38.400000000000006" cy="43.2" r="4.8" fill="#4285F4"/>
  <ellipse cx="38.400000000000006" cy="57.599999999999994" rx="8" ry="12" fill="#4285F4"/>
  
  <!-- Child figure -->
  <circle cx="57.599999999999994" cy="48" r="3.84" fill="#0EA5E9"/>
  <ellipse cx="57.599999999999994" cy="59.519999999999996" rx="6.4" ry="9.6" fill="#0EA5E9"/>
  
  <!-- Check mark (bottom right) -->
  <circle cx="76.80000000000001" cy="76.80000000000001" r="12" fill="#34A853"/>
  <path d="M72 76.80000000000001 L74.88 79.67999999999999 L81.6 73.92" 
        stroke="white" 
        stroke-width="1.2" 
        fill="none" 
        stroke-linecap="round"/>
</svg>
