
<svg width="48" height="48" viewBox="0 0 48 48" xmlns="http://www.w3.org/2000/svg">
  <defs>
    <linearGradient id="shieldGradient" x1="0%" y1="0%" x2="100%" y2="0%">
      <stop offset="0%" style="stop-color:#4285F4;stop-opacity:1" />
      <stop offset="100%" style="stop-color:#8B5CF6;stop-opacity:1" />
    </linearGradient>
  </defs>
  
  <!-- Shield background -->
  <path d="M6 8 
           Q6 6 12 6
           L36 6
           Q42 6 42 8
           L42 24
           Q42 40 24 42
           Q6 40 6 24
           Z" 
        fill="url(#shieldGradient)" 
        stroke="none"/>
  
  <!-- Inner shield -->
  <path d="M8 12 
           Q8 9.6 16 9.6
           L32 9.6
           Q40 9.6 40 12
           L40 24
           Q40 36 24 38.4
           Q8 36 8 24
           Z" 
        fill="#E8E8E8" 
        opacity="0.9"/>
  
  <!-- Family silhouettes -->
  <!-- Parent figure -->
  <circle cx="19.200000000000003" cy="21.6" r="2.4" fill="#4285F4"/>
  <ellipse cx="19.200000000000003" cy="28.799999999999997" rx="4" ry="6" fill="#4285F4"/>
  
  <!-- Child figure -->
  <circle cx="28.799999999999997" cy="24" r="1.92" fill="#0EA5E9"/>
  <ellipse cx="28.799999999999997" cy="29.759999999999998" rx="3.2" ry="4.8" fill="#0EA5E9"/>
  
  <!-- Check mark (bottom right) -->
  <circle cx="38.400000000000006" cy="38.400000000000006" r="6" fill="#34A853"/>
  <path d="M36 38.400000000000006 L37.44 39.839999999999996 L40.8 36.96" 
        stroke="white" 
        stroke-width="0.6" 
        fill="none" 
        stroke-linecap="round"/>
</svg>
