
<svg width="167" height="167" viewBox="0 0 167 167" xmlns="http://www.w3.org/2000/svg">
  <defs>
    <linearGradient id="shieldGradient" x1="0%" y1="0%" x2="100%" y2="0%">
      <stop offset="0%" style="stop-color:#4285F4;stop-opacity:1" />
      <stop offset="100%" style="stop-color:#8B5CF6;stop-opacity:1" />
    </linearGradient>
  </defs>
  
  <!-- Shield background -->
  <path d="M20.875 27.833333333333332 
           Q20.875 20.875 41.75 20.875
           L125.25 20.875
           Q146.125 20.875 146.125 27.833333333333332
           L146.125 83.5
           Q146.125 139.16666666666666 83.5 146.125
           Q20.875 139.16666666666666 20.875 83.5
           Z" 
        fill="url(#shieldGradient)" 
        stroke="none"/>
  
  <!-- Inner shield -->
  <path d="M27.833333333333332 41.75 
           Q27.833333333333332 33.4 55.666666666666664 33.4
           L111.33333333333333 33.4
           Q139.16666666666666 33.4 139.16666666666666 41.75
           L139.16666666666666 83.5
           Q139.16666666666666 125.25 83.5 133.6
           Q27.833333333333332 125.25 27.833333333333332 83.5
           Z" 
        fill="#E8E8E8" 
        opacity="0.9"/>
  
  <!-- Family silhouettes -->
  <!-- Parent figure -->
  <circle cx="66.8" cy="75.15" r="8.35" fill="#4285F4"/>
  <ellipse cx="66.8" cy="100.2" rx="13.916666666666666" ry="20.875" fill="#4285F4"/>
  
  <!-- Child figure -->
  <circle cx="100.2" cy="83.5" r="6.68" fill="#0EA5E9"/>
  <ellipse cx="100.2" cy="103.54" rx="11.133333333333333" ry="16.7" fill="#0EA5E9"/>
  
  <!-- Check mark (bottom right) -->
  <circle cx="133.6" cy="133.6" r="20.875" fill="#34A853"/>
  <path d="M125.25 133.6 L130.26 138.60999999999999 L141.95 128.59" 
        stroke="white" 
        stroke-width="2.0875" 
        fill="none" 
        stroke-linecap="round"/>
</svg>
