
<svg width="60" height="60" viewBox="0 0 60 60" xmlns="http://www.w3.org/2000/svg">
  <defs>
    <linearGradient id="shieldGradient" x1="0%" y1="0%" x2="100%" y2="0%">
      <stop offset="0%" style="stop-color:#4285F4;stop-opacity:1" />
      <stop offset="100%" style="stop-color:#8B5CF6;stop-opacity:1" />
    </linearGradient>
  </defs>
  
  <!-- Shield background -->
  <path d="M7.5 10 
           Q7.5 7.5 15 7.5
           L45 7.5
           Q52.5 7.5 52.5 10
           L52.5 30
           Q52.5 50 30 52.5
           Q7.5 50 7.5 30
           Z" 
        fill="url(#shieldGradient)" 
        stroke="none"/>
  
  <!-- Inner shield -->
  <path d="M10 15 
           Q10 12 20 12
           L40 12
           Q50 12 50 15
           L50 30
           Q50 45 30 48
           Q10 45 10 30
           Z" 
        fill="#E8E8E8" 
        opacity="0.9"/>
  
  <!-- Family silhouettes -->
  <!-- Parent figure -->
  <circle cx="24" cy="27" r="3" fill="#4285F4"/>
  <ellipse cx="24" cy="36" rx="5" ry="7.5" fill="#4285F4"/>
  
  <!-- Child figure -->
  <circle cx="36" cy="30" r="2.4" fill="#0EA5E9"/>
  <ellipse cx="36" cy="37.2" rx="4" ry="6" fill="#0EA5E9"/>
  
  <!-- Check mark (bottom right) -->
  <circle cx="48" cy="48" r="7.5" fill="#34A853"/>
  <path d="M45 48 L46.800000000000004 49.8 L51 46.2" 
        stroke="white" 
        stroke-width="0.75" 
        fill="none" 
        stroke-linecap="round"/>
</svg>
