
<svg width="58" height="58" viewBox="0 0 58 58" xmlns="http://www.w3.org/2000/svg">
  <defs>
    <linearGradient id="shieldGradient" x1="0%" y1="0%" x2="100%" y2="0%">
      <stop offset="0%" style="stop-color:#4285F4;stop-opacity:1" />
      <stop offset="100%" style="stop-color:#8B5CF6;stop-opacity:1" />
    </linearGradient>
  </defs>
  
  <!-- Shield background -->
  <path d="M7.25 9.666666666666666 
           Q7.25 7.25 14.5 7.25
           L43.5 7.25
           Q50.75 7.25 50.75 9.666666666666666
           L50.75 29
           Q50.75 48.333333333333336 29 50.75
           Q7.25 48.333333333333336 7.25 29
           Z" 
        fill="url(#shieldGradient)" 
        stroke="none"/>
  
  <!-- Inner shield -->
  <path d="M9.666666666666666 14.5 
           Q9.666666666666666 11.6 19.333333333333332 11.6
           L38.666666666666664 11.6
           Q48.333333333333336 11.6 48.333333333333336 14.5
           L48.333333333333336 29
           Q48.333333333333336 43.5 29 46.4
           Q9.666666666666666 43.5 9.666666666666666 29
           Z" 
        fill="#E8E8E8" 
        opacity="0.9"/>
  
  <!-- Family silhouettes -->
  <!-- Parent figure -->
  <circle cx="23.200000000000003" cy="26.1" r="2.9" fill="#4285F4"/>
  <ellipse cx="23.200000000000003" cy="34.8" rx="4.833333333333333" ry="7.25" fill="#4285F4"/>
  
  <!-- Child figure -->
  <circle cx="34.8" cy="29" r="2.32" fill="#0EA5E9"/>
  <ellipse cx="34.8" cy="35.96" rx="3.8666666666666667" ry="5.8" fill="#0EA5E9"/>
  
  <!-- Check mark (bottom right) -->
  <circle cx="46.400000000000006" cy="46.400000000000006" r="7.25" fill="#34A853"/>
  <path d="M43.5 46.400000000000006 L45.24 48.14 L49.3 44.660000000000004" 
        stroke="white" 
        stroke-width="0.725" 
        fill="none" 
        stroke-linecap="round"/>
</svg>
