
<svg width="120" height="120" viewBox="0 0 120 120" xmlns="http://www.w3.org/2000/svg">
  <defs>
    <linearGradient id="shieldGradient" x1="0%" y1="0%" x2="100%" y2="0%">
      <stop offset="0%" style="stop-color:#4285F4;stop-opacity:1" />
      <stop offset="100%" style="stop-color:#8B5CF6;stop-opacity:1" />
    </linearGradient>
  </defs>
  
  <!-- Shield background -->
  <path d="M15 20 
           Q15 15 30 15
           L90 15
           Q105 15 105 20
           L105 60
           Q105 100 60 105
           Q15 100 15 60
           Z" 
        fill="url(#shieldGradient)" 
        stroke="none"/>
  
  <!-- Inner shield -->
  <path d="M20 30 
           Q20 24 40 24
           L80 24
           Q100 24 100 30
           L100 60
           Q100 90 60 96
           Q20 90 20 60
           Z" 
        fill="#E8E8E8" 
        opacity="0.9"/>
  
  <!-- Family silhouettes -->
  <!-- Parent figure -->
  <circle cx="48" cy="54" r="6" fill="#4285F4"/>
  <ellipse cx="48" cy="72" rx="10" ry="15" fill="#4285F4"/>
  
  <!-- Child figure -->
  <circle cx="72" cy="60" r="4.8" fill="#0EA5E9"/>
  <ellipse cx="72" cy="74.4" rx="8" ry="12" fill="#0EA5E9"/>
  
  <!-- Check mark (bottom right) -->
  <circle cx="96" cy="96" r="15" fill="#34A853"/>
  <path d="M90 96 L93.60000000000001 99.6 L102 92.4" 
        stroke="white" 
        stroke-width="1.5" 
        fill="none" 
        stroke-linecap="round"/>
</svg>
