
<svg width="20" height="20" viewBox="0 0 20 20" xmlns="http://www.w3.org/2000/svg">
  <defs>
    <linearGradient id="shieldGradient" x1="0%" y1="0%" x2="100%" y2="0%">
      <stop offset="0%" style="stop-color:#4285F4;stop-opacity:1" />
      <stop offset="100%" style="stop-color:#8B5CF6;stop-opacity:1" />
    </linearGradient>
  </defs>
  
  <!-- Shield background -->
  <path d="M2.5 3.3333333333333335 
           Q2.5 2.5 5 2.5
           L15 2.5
           Q17.5 2.5 17.5 3.3333333333333335
           L17.5 10
           Q17.5 16.666666666666668 10 17.5
           Q2.5 16.666666666666668 2.5 10
           Z" 
        fill="url(#shieldGradient)" 
        stroke="none"/>
  
  <!-- Inner shield -->
  <path d="M3.3333333333333335 5 
           Q3.3333333333333335 4 6.666666666666667 4
           L13.333333333333334 4
           Q16.666666666666668 4 16.666666666666668 5
           L16.666666666666668 10
           Q16.666666666666668 15 10 16
           Q3.3333333333333335 15 3.3333333333333335 10
           Z" 
        fill="#E8E8E8" 
        opacity="0.9"/>
  
  <!-- Family silhouettes -->
  <!-- Parent figure -->
  <circle cx="8" cy="9" r="1" fill="#4285F4"/>
  <ellipse cx="8" cy="12" rx="1.6666666666666667" ry="2.5" fill="#4285F4"/>
  
  <!-- Child figure -->
  <circle cx="12" cy="10" r="0.8" fill="#0EA5E9"/>
  <ellipse cx="12" cy="12.4" rx="1.3333333333333333" ry="2" fill="#0EA5E9"/>
  
  <!-- Check mark (bottom right) -->
  <circle cx="16" cy="16" r="2.5" fill="#34A853"/>
  <path d="M15 16 L15.600000000000001 16.599999999999998 L17 15.4" 
        stroke="white" 
        stroke-width="0.25" 
        fill="none" 
        stroke-linecap="round"/>
</svg>
